<svg xmlns="http://www.w3.org/2000/svg" viewBox="0 0 37 42.25"><defs><style>.cls-1{fill:#0666f2;}.cls-2{fill:#1c1f2a;}</style></defs><g id="Product_Logos_Vertical" data-name="Product Logos Vertical"><path class="cls-1" d="M16,27.07a2.59,2.59,0,0,0,.89,2.21,3.41,3.41,0,0,0,2.14.65h2V26.72h-.82c-.59,0-.89-.27-.89-.8V13.36H16Z"/><polygon class="cls-2" points="18.5 0 0 10.66 0 31.99 17.63 42.14 17.63 36.91 4.54 29.37 4.54 13.28 18.5 5.24 32.46 13.28 32.46 28.26 37 30.88 37 10.66 18.5 0"/><polygon class="cls-1" points="19.44 37.02 19.44 42.25 36.27 32.55 31.73 29.93 19.44 37.02"/></g></svg>