<?xml version="1.0" encoding="utf-8"?>
<!-- Generator: Adobe Illustrator 25.2.0, SVG Export Plug-In . SVG Version: 6.00 Build 0)  -->
<svg version="1.1" id="Layer_1" xmlns="http://www.w3.org/2000/svg" xmlns:xlink="http://www.w3.org/1999/xlink" x="0px" y="0px"
	 viewBox="0 0 72.3 77.6" style="enable-background:new 0 0 72.3 77.6;" xml:space="preserve">
<style type="text/css">
	.st0{fill:#1ABA73;}
	.st1{fill:#1C1F2A;}
</style>
<g id="Product_Logos_Vertical">
	<path class="st0" d="M36.6,27v-7.4c0.7-0.8,1.7-1.3,2.8-1.3c0.3,0,0.6,0,0.8,0.1v-2.9c-1.4,0.1-2.7,0.7-3.6,1.8v-1.5h-3V27H36.6z"
		/>
	<polygon class="st1" points="17.5,10.2 17.5,31.6 36,42.2 54.5,31.6 54.5,11.3 49.9,13.9 49.9,28.9 36,37 22,28.9 22,12.8 
		35.1,5.2 35.1,0 	"/>
	<polygon class="st0" points="36.9,0 36.9,5.2 49.2,12.4 53.7,9.7 	"/>
	<path class="st1" d="M20.9,53.5c0-1.4-0.7-1.9-1.8-1.9c-0.9,0-1.8,0.5-2.3,1.2V59h-1.6v-8.5h1.6v1.2c0.7-0.9,1.8-1.4,3-1.4
		c1.3-0.2,2.6,0.8,2.7,2.1c0,0.2,0,0.4,0,0.6v6h-1.6V53.5z"/>
	<path class="st1" d="M27.6,50.3c2.5,0,4.1,2,4.1,4.6v0.4h-6.7c0.1,1.5,1.4,2.7,2.9,2.6c0.9,0,1.8-0.4,2.5-1l0.7,1
		c-0.9,0.9-2.1,1.3-3.4,1.3c-2.5,0-4.5-1.9-4.5-4.4C23.3,52.3,25.2,50.3,27.6,50.3L27.6,50.3z M25,54.1h5.2c0-1.4-1.1-2.5-2.5-2.5
		c0,0-0.1,0-0.1,0C26.2,51.6,25,52.7,25,54.1z"/>
	<path class="st1" d="M35.8,55.7L33.5,59h-1.8l3.2-4.4l-3-4.1h1.8l2.2,3.1l2.2-3.1h1.8l-3,4.1L40,59h-1.8L35.8,55.7z"/>
	<path class="st1" d="M46.5,57.8c-0.8,0.8-1.9,1.3-3,1.4c-1.3,0.2-2.5-0.7-2.7-2c0-0.2,0-0.5,0-0.7v-6h1.6V56c0,1.4,0.7,1.8,1.8,1.8
		c0.9,0,1.8-0.5,2.4-1.2v-6.2h1.6V59h-1.6V57.8z"/>
	<path class="st1" d="M49.9,56.7c0.8,0.8,1.8,1.2,2.8,1.2c1.2,0,1.8-0.5,1.8-1.2s-1-1.1-2.1-1.4c-1.4-0.3-3.1-0.7-3.1-2.5
		c0-1.4,1.2-2.5,3.2-2.5c1.2,0,2.4,0.4,3.2,1.2l-0.7,1.1c-0.7-0.7-1.6-1-2.5-1c-1.1,0-1.7,0.4-1.7,1.1s0.9,1,2,1.2
		c1.5,0.3,3.2,0.7,3.2,2.7c0,1.5-1.2,2.6-3.4,2.6c-1.3,0.1-2.6-0.4-3.5-1.3L49.9,56.7z"/>
</g>
<path class="st0" d="M0,65.8h1.6v1.3c0.7-0.8,1.7-1.5,2.8-1.5v1.6c-0.2,0-0.3-0.1-0.5-0.1c-0.8,0-1.9,0.6-2.2,1.2v5.9H0V65.8z"/>
<path class="st0" d="M9,65.6c2.6,0,4.1,2,4.1,4.6v0.4H6.4c0.1,1.4,1.2,2.6,2.9,2.6c0.9,0,1.9-0.4,2.5-1l0.7,1
	c-0.8,0.8-2,1.3-3.4,1.3c-2.5,0-4.4-1.8-4.4-4.5C4.7,67.6,6.5,65.6,9,65.6z M6.4,69.5h5.2c0-1.1-0.8-2.5-2.6-2.5
	C7.3,66.9,6.5,68.3,6.4,69.5z"/>
<path class="st0" d="M14.4,77.6V65.8H16V67c0.6-0.8,1.6-1.4,2.8-1.4c2.2,0,3.8,1.7,3.8,4.5c0,2.8-1.6,4.5-3.8,4.5
	c-1.1,0-2.1-0.5-2.8-1.4v4.5H14.4z M18.3,67c-1,0-1.9,0.6-2.4,1.2v3.6c0.4,0.7,1.4,1.2,2.4,1.2c1.6,0,2.6-1.3,2.6-3.1
	C20.9,68.3,19.9,67,18.3,67z"/>
<path class="st0" d="M23.3,70.1c0-2.4,1.7-4.5,4.3-4.5c2.7,0,4.3,2,4.3,4.5c0,2.5-1.6,4.5-4.3,4.5C25,74.5,23.3,72.5,23.3,70.1z
	 M30.3,70.1c0-1.6-0.9-3-2.6-3c-1.7,0-2.6,1.4-2.6,3c0,1.6,1,3.1,2.6,3.1C29.3,73.1,30.3,71.7,30.3,70.1z"/>
<path class="st0" d="M33.2,72.1c0.6,0.6,1.7,1.2,2.9,1.2c1.2,0,1.8-0.5,1.8-1.2c0-0.8-1-1.1-2.1-1.4c-1.4-0.3-3.1-0.7-3.1-2.6
	c0-1.4,1.2-2.5,3.2-2.5c1.5,0,2.5,0.5,3.2,1.2l-0.7,1.1c-0.5-0.6-1.4-1-2.5-1s-1.7,0.4-1.7,1.1c0,0.7,0.9,1,2,1.2
	c1.5,0.3,3.2,0.7,3.2,2.7c0,1.5-1.2,2.6-3.4,2.6c-1.4,0-2.7-0.4-3.5-1.3L33.2,72.1z"/>
<path class="st0" d="M40.5,63.4c0-0.6,0.5-1,1-1c0.6,0,1,0.5,1,1c0,0.6-0.5,1-1,1C41,64.4,40.5,64,40.5,63.4z M40.7,65.8h1.6v8.5
	h-1.6V65.8z"/>
<path class="st0" d="M44.5,72.4v-5.2H43v-1.4h1.4v-2.3H46v2.3h1.7v1.4H46v4.9c0,0.6,0.3,1,0.8,1c0.4,0,0.7-0.2,0.9-0.3l0.4,1.2
	c-0.3,0.3-0.8,0.5-1.7,0.5C45.1,74.5,44.5,73.8,44.5,72.4z"/>
<path class="st0" d="M48.6,70.1c0-2.4,1.7-4.5,4.3-4.5c2.7,0,4.3,2,4.3,4.5c0,2.5-1.6,4.5-4.3,4.5C50.3,74.5,48.6,72.5,48.6,70.1z
	 M55.6,70.1c0-1.6-0.9-3-2.6-3c-1.7,0-2.6,1.4-2.6,3c0,1.6,1,3.1,2.6,3.1C54.6,73.1,55.6,71.7,55.6,70.1z"/>
<path class="st0" d="M58.2,65.8h1.6v1.3c0.7-0.8,1.7-1.5,2.8-1.5v1.6c-0.2,0-0.3-0.1-0.5-0.1c-0.8,0-1.9,0.6-2.2,1.2v5.9h-1.6V65.8z
	"/>
<path class="st0" d="M65.3,76.2c0.6,0,1-0.2,1.2-0.8l0.5-1.1l-3.5-8.6h1.7l2.7,6.7l2.7-6.7h1.7l-4.2,10.1c-0.5,1.3-1.5,1.8-2.7,1.8
	c-0.3,0-0.7-0.1-1-0.1l0.2-1.4C64.8,76.1,65.1,76.2,65.3,76.2z"/>
</svg>
