<?xml version="1.0" encoding="UTF-8"?>
<svg id="Layer_1" data-name="Layer 1" xmlns="http://www.w3.org/2000/svg" viewBox="0 0 103 138">
  <defs>
    <style>
      .cls-1 {
        fill: #00bd6c;
      }

      .cls-2 {
        fill: #00bb6c;
      }

      .cls-3 {
        fill: #1c1f2a;
      }

      .cls-4 {
        fill: #1b1f2b;
      }
    </style>
  </defs>
  <g>
    <g id="Sonatype_Logo_Favicon" data-name="Sonatype Logo Favicon">
      <polygon class="cls-1" points="76.32 27.92 76.32 34.64 60.55 43.87 56.55 46.22 56.54 46.22 50.81 49.56 45.07 46.2 41.06 43.86 25.32 34.64 25.32 27.93 31.21 31.38 31.21 31.43 46.76 40.51 50.78 42.87 50.81 42.88 50.84 42.87 54.84 40.53 70.41 31.43 70.41 31.37 76.32 27.92"/>
    </g>
    <g id="Sonatype_Logo_Favicon-2" data-name="Sonatype Logo Favicon">
      <polygon class="cls-3" points="76.32 38.74 76.32 45.47 60.55 54.7 56.55 57.04 56.54 57.04 50.81 60.39 45.07 57.03 41.06 54.68 25.32 45.47 25.32 38.75 31.21 42.21 31.21 42.25 46.76 51.34 50.78 53.69 50.81 53.71 50.84 53.69 54.84 51.35 70.41 42.25 70.41 42.19 76.32 38.74"/>
    </g>
    <g id="Sonatype_Logo_Favicon-3" data-name="Sonatype Logo Favicon">
      <path class="cls-3" d="m70.41,10.08v10.52l-15.57,9.1-4.01,2.34h-.03s-.03,0-.03,0l-4.02-2.36-15.55-9.08v-10.52h-5.89v13.73l15.74,9.22,4.01,2.34,5.74,3.36,5.73-3.35,4.01-2.34,15.77-9.23v-13.73h-5.91Z"/>
    </g>
    <path class="cls-2" d="m51.75,22.47v-11.01c.72-1.07,2.62-1.9,4.05-1.9.51,0,.88.04,1.19.1v-4.28c-2.04,0-4.05,1.21-5.24,2.66v-2.24h-4.32v16.67h4.32Z"/>
  </g>
  <g>
    <path class="cls-4" d="m5.51,82.72l1.1-1.72c.78.8,2.32,1.54,3.75,1.54s2.21-.6,2.21-1.47c0-2.18-6.71-.62-6.71-4.9,0-1.82,1.56-3.36,4.37-3.36,1.88,0,3.31.67,4.3,1.54l-1.01,1.7c-.67-.74-1.88-1.33-3.29-1.33-1.27,0-2.05.6-2.05,1.38,0,1.95,6.71.48,6.71,4.9,0,1.98-1.63,3.47-4.62,3.47-1.91,0-3.61-.62-4.76-1.75Z"/>
    <path class="cls-4" d="m15.72,78.63c0-3.2,2.16-5.82,5.7-5.82s5.7,2.62,5.7,5.82-2.16,5.84-5.7,5.84-5.7-2.67-5.7-5.84Zm8.9,0c0-1.96-1.13-3.68-3.2-3.68s-3.2,1.72-3.2,3.68,1.15,3.7,3.2,3.7,3.2-1.72,3.2-3.7Z"/>
    <path class="cls-4" d="m36.42,84.2v-6.94c0-1.75-.9-2.3-2.25-2.3-1.22,0-2.28.74-2.85,1.47v7.77h-2.41v-11.11h2.41v1.49c.74-.87,2.19-1.77,3.93-1.77,2.39,0,3.59,1.29,3.59,3.56v7.82h-2.41Z"/>
    <path class="cls-4" d="m48.19,84.2v-1.22c-.83.97-2.14,1.5-3.61,1.5-1.79,0-3.84-1.24-3.84-3.68,0-2.58,2.02-3.63,3.84-3.63,1.52,0,2.78.48,3.61,1.43v-1.66c0-1.29-1.08-2.07-2.6-2.07-1.24,0-2.35.46-3.29,1.43l-1.01-1.68c1.29-1.24,2.9-1.79,4.67-1.79,2.48,0,4.64,1.04,4.64,4v7.38h-2.41Zm0-2.53v-1.7c-.57-.76-1.61-1.15-2.64-1.15-1.36,0-2.39.8-2.39,2s1.04,2,2.39,2c1.04,0,2.07-.39,2.64-1.15Z"/>
    <path class="cls-4" d="m54.01,81.6v-6.42h-1.84v-2.09h1.84v-3.04h2.41v3.04h2.25v2.09h-2.25v5.82c0,.76.37,1.33,1.06,1.33.46,0,.87-.21,1.06-.41l.58,1.84c-.44.39-1.15.71-2.25.71-1.89,0-2.85-1.01-2.85-2.88Z"/>
    <path class="cls-4" d="m61.07,86.38c.25.12.64.18.92.18.78,0,1.29-.23,1.61-.97l.55-1.26-4.58-11.24h2.6l3.24,8.32,3.24-8.32h2.58l-5.36,13.11c-.76,1.88-2.07,2.48-3.79,2.51-.35,0-1.04-.07-1.36-.16l.35-2.16Z"/>
    <path class="cls-4" d="m74.9,82.65v5.77h-2.41v-15.34h2.41v1.52c.83-1.1,2.12-1.79,3.56-1.79,2.88,0,4.92,2.16,4.92,5.82s-2.04,5.84-4.92,5.84c-1.4,0-2.64-.64-3.56-1.82Zm6-4.02c0-2.16-1.24-3.68-3.15-3.68-1.13,0-2.3.64-2.85,1.47v4.39c.53.83,1.72,1.52,2.85,1.52,1.91,0,3.15-1.54,3.15-3.7Z"/>
    <path class="cls-4" d="m84.7,78.63c0-3.22,2.35-5.82,5.63-5.82s5.45,2.53,5.45,6.03v.6h-8.55c.18,1.66,1.43,3.06,3.52,3.06,1.1,0,2.37-.44,3.17-1.24l1.1,1.59c-1.13,1.06-2.76,1.63-4.51,1.63-3.36,0-5.82-2.32-5.82-5.84Zm5.61-3.84c-2.05,0-3.01,1.59-3.11,2.92h6.26c-.07-1.31-.97-2.92-3.15-2.92Z"/>
    <path class="cls-1" d="m30.3,108.2v-6.71c0-1.54-.8-2.07-2.05-2.07-1.15,0-2.02.64-2.53,1.29v7.5h-2.92v-11.11h2.92v1.43c.71-.83,2.09-1.7,3.88-1.7,2.46,0,3.63,1.38,3.63,3.54v7.84h-2.94Z"/>
    <path class="cls-1" d="m34.37,102.63c0-3.22,2.39-5.82,5.75-5.82s5.57,2.48,5.57,6.09v.69h-8.26c.21,1.36,1.31,2.48,3.2,2.48.94,0,2.23-.39,2.94-1.08l1.31,1.93c-1.1,1.01-2.85,1.54-4.57,1.54-3.38,0-5.93-2.28-5.93-5.84Zm5.75-3.43c-1.82,0-2.6,1.26-2.71,2.37h5.47c-.09-1.06-.83-2.37-2.76-2.37Z"/>
    <path class="cls-1" d="m53.74,108.2l-2.53-3.75-2.55,3.75h-3.24l3.96-5.7-3.72-5.4h3.27l2.3,3.4,2.28-3.4h3.27l-3.7,5.4,3.96,5.7h-3.27Z"/>
    <path class="cls-1" d="m65.38,108.2v-1.4c-.76.83-2.09,1.68-3.91,1.68-2.44,0-3.59-1.33-3.59-3.5v-7.89h2.92v6.74c0,1.54.8,2.05,2.05,2.05,1.12,0,2.02-.62,2.53-1.26v-7.52h2.92v11.11h-2.92Z"/>
    <path class="cls-1" d="m69.65,106.75l1.27-2.12c.83.78,2.46,1.54,3.84,1.54,1.26,0,1.86-.48,1.86-1.17,0-1.82-6.58-.32-6.58-4.69,0-1.86,1.61-3.5,4.55-3.5,1.86,0,3.36.64,4.46,1.52l-1.17,2.07c-.67-.69-1.93-1.29-3.29-1.29-1.06,0-1.75.46-1.75,1.08,0,1.63,6.6.25,6.6,4.74,0,2.05-1.75,3.54-4.83,3.54-1.93,0-3.79-.64-4.97-1.72Z"/>
    <path class="cls-1" d="m1.65,132.2v-11.11h2.92v1.49c.8-.97,2.16-1.77,3.54-1.77v2.85c-.21-.05-.46-.07-.8-.07-.97,0-2.25.55-2.74,1.27v7.33H1.65Z"/>
    <path class="cls-1" d="m8.65,126.63c0-3.22,2.39-5.82,5.75-5.82s5.56,2.48,5.56,6.09v.69h-8.26c.21,1.36,1.31,2.48,3.2,2.48.94,0,2.23-.39,2.94-1.08l1.31,1.93c-1.1,1.01-2.85,1.54-4.58,1.54-3.38,0-5.93-2.28-5.93-5.84Zm5.75-3.43c-1.82,0-2.6,1.26-2.71,2.37h5.47c-.09-1.06-.83-2.37-2.76-2.37Z"/>
    <path class="cls-1" d="m24.31,130.77v5.66h-2.92v-15.34h2.92v1.4c.85-1.08,2.07-1.68,3.43-1.68,2.85,0,4.92,2.12,4.92,5.82s-2.07,5.84-4.92,5.84c-1.31,0-2.51-.55-3.43-1.7Zm5.34-4.14c0-1.91-1.15-3.22-2.83-3.22-.94,0-2,.53-2.51,1.26v3.91c.48.71,1.56,1.29,2.51,1.29,1.68,0,2.83-1.31,2.83-3.24Z"/>
    <path class="cls-1" d="m33.62,126.63c0-3.15,2.21-5.82,5.86-5.82s5.89,2.67,5.89,5.82-2.21,5.84-5.89,5.84-5.86-2.69-5.86-5.84Zm8.71,0c0-1.72-1.01-3.22-2.85-3.22s-2.83,1.5-2.83,3.22,1.01,3.24,2.83,3.24,2.85-1.5,2.85-3.24Z"/>
    <path class="cls-1" d="m46.02,130.75l1.27-2.12c.83.78,2.46,1.54,3.84,1.54,1.26,0,1.86-.48,1.86-1.17,0-1.82-6.58-.32-6.58-4.69,0-1.86,1.61-3.5,4.55-3.5,1.86,0,3.36.64,4.46,1.52l-1.17,2.07c-.67-.69-1.93-1.29-3.29-1.29-1.06,0-1.75.46-1.75,1.08,0,1.63,6.6.25,6.6,4.74,0,2.05-1.75,3.54-4.83,3.54-1.93,0-3.79-.64-4.97-1.72Z"/>
    <path class="cls-1" d="m57.11,118.15c0-.97.78-1.72,1.72-1.72s1.75.76,1.75,1.72-.78,1.75-1.75,1.75-1.72-.78-1.72-1.75Zm.28,14.05v-11.11h2.92v11.11h-2.92Z"/>
    <path class="cls-1" d="m63.69,129.41v-5.77h-1.84v-2.55h1.84v-3.04h2.92v3.04h2.25v2.55h-2.25v4.99c0,.71.37,1.24,1.01,1.24.44,0,.85-.16,1.01-.34l.62,2.23c-.44.39-1.22.71-2.44.71-2.05,0-3.13-1.06-3.13-3.06Z"/>
    <path class="cls-1" d="m69.11,126.63c0-3.15,2.21-5.82,5.86-5.82s5.89,2.67,5.89,5.82-2.21,5.84-5.89,5.84-5.86-2.69-5.86-5.84Zm8.71,0c0-1.72-1.01-3.22-2.85-3.22s-2.83,1.5-2.83,3.22,1.01,3.24,2.83,3.24,2.85-1.5,2.85-3.24Z"/>
    <path class="cls-1" d="m82.02,132.2v-11.11h2.92v1.49c.8-.97,2.16-1.77,3.54-1.77v2.85c-.21-.05-.46-.07-.8-.07-.96,0-2.25.55-2.74,1.27v7.33h-2.92Z"/>
    <path class="cls-1" d="m90.99,133.92c.25.12.64.18.92.18.76,0,1.27-.21,1.54-.8l.41-.97-4.51-11.24h3.13l2.9,7.73,2.92-7.73h3.13l-5.22,12.92c-.83,2.09-2.3,2.64-4.21,2.69-.32,0-1.08-.07-1.43-.18l.41-2.6Z"/>
  </g>
</svg>